PathFileType  4	(X/Y/Z) D:\Research_projects\MuscleProsody\BulkSports2Dtrack\RetrackedSports2D\p1_sample60_cam3\p1_sample60_cam3_Sports2D\pose-3d
DataRate	CameraRate	NumFrames	NumMarkers	Units	OrigDataRate	OrigDataStartFrame	OrigNumFrames
60.0	60.0	11	22	m	60.0	195	780
Frame#	Time	Hip			RHip			RKnee			RAnkle			RBigToe			RSmallToe			RHeel			LHip			LKnee			LAnkle			LBigToe			LSmallToe			LHeel			Neck			Head			Nose			RShoulder			RElbow			RWrist			LShoulder			LElbow			LWrist			
		X1	Y1	Z1	X2	Y2	Z2	X3	Y3	Z3	X4	Y4	Z4	X5	Y5	Z5	X6	Y6	Z6	X7	Y7	Z7	X8	Y8	Z8	X9	Y9	Z9	X10	Y10	Z10	X11	Y11	Z11	X12	Y12	Z12	X13	Y13	Z13	X14	Y14	Z14	X15	Y15	Z15	X16	Y16	Z16	X17	Y17	Z17	X18	Y18	Z18	X19	Y19	Z19	X20	Y20	Z20	X21	Y21	Z21	X22	Y22	Z22	

196	3.2500000	0.4297854	1.0099188	0.0301000	0.3443403	0.9738151	0.0301000	0.5119821	0.5855463	0.1290000	0.6911371	0.2413115	0.0230000	0.6626619	0.0623811	0.2179000	0.6308265	0.0930711	0.1804000	0.7599174	0.2236506	-0.0119000	0.5162964	1.0469853	0.0301000	0.6747433	0.6417579	0.1290000	0.8667411	0.2547465	0.0230000	0.8358122	0.0862187	0.2179000	0.8992366	0.1017779	0.1804000	0.9076453	0.2312293	-0.0119000	0.1598415	1.5452885	0.0008000	-0.0631489	1.7321979	0.0655000	-0.0197170	1.5766335	0.1076000	0.0458995	1.4449933	-0.0127500	-0.2147059	1.4584486	0.0702000	-0.3434399	1.7141173	0.1076000	0.3121037	1.5829693	-0.0127500	0.3507072	1.8057733	0.0702000	0.1040643	2.0458192	0.1076000
197	3.2666667	0.4241337	1.0233861	0.0301000	0.3392296	0.9873119	0.0301000	0.5088909	0.5988613	0.1290000	0.6856247	0.2506743	0.0230000	0.6574475	0.0688833	0.2179000	0.6256462	0.0999821	0.1804000	0.7555520	0.2334026	-0.0119000	0.5104030	1.0602871	0.0301000	0.6738452	0.6543488	0.1290000	0.8635842	0.2625496	0.0230000	0.8327190	0.0946426	0.2179000	0.8967019	0.1099551	0.1804000	0.9034833	0.2390355	-0.0119000	0.1551655	1.5582992	0.0008000	-0.0691949	1.7447437	0.0655000	-0.0251371	1.5891774	0.1076000	0.0416690	1.4577169	-0.0127500	-0.2199169	1.4732654	0.0702000	-0.3464079	1.7312303	0.1076000	0.3064027	1.5959137	-0.0127500	0.3411130	1.8196513	0.0702000	0.0915519	2.0580637	0.1076000
198	3.2833333	0.4206466	1.0322801	0.0301000	0.3360689	0.9962663	0.0301000	0.5067914	0.6076987	0.1290000	0.6815961	0.2569470	0.0230000	0.6535024	0.0733016	0.2179000	0.6217902	0.1047816	0.1804000	0.7524077	0.2401470	-0.0119000	0.5067897	1.0690374	0.0301000	0.6735864	0.6623266	0.1290000	0.8616420	0.2670524	0.0230000	0.8302906	0.1001214	0.2179000	0.8948340	0.1153343	0.1804000	0.9006157	0.2438095	-0.0119000	0.1522993	1.5666844	0.0008000	-0.0736923	1.7523329	0.0655000	-0.0287656	1.5967356	0.1076000	0.0393044	1.4657665	-0.0127500	-0.2229082	1.4814323	0.0702000	-0.3465379	1.7413452	0.1076000	0.3029222	1.6040731	-0.0127500	0.3354459	1.8257845	0.0702000	0.0824619	2.0617228	0.1076000
199	3.3000000	0.4193957	1.0364182	0.0301000	0.3348601	1.0005220	0.0301000	0.5058554	0.6118928	0.1290000	0.6791768	0.2597380	0.0230000	0.6509887	0.0752520	0.2179000	0.6194143	0.1070527	0.1804000	0.7505851	0.2434481	-0.0119000	0.5055263	1.0731198	0.0301000	0.6741601	0.6655507	0.1290000	0.8609947	0.2679142	0.0230000	0.8286990	0.1021778	0.2179000	0.8937842	0.1174448	0.1804000	0.8991410	0.2451770	-0.0119000	0.1513332	1.5703394	0.0008000	-0.0764893	1.7548145	0.0655000	-0.0304736	1.5992416	0.1076000	0.0388657	1.4691216	-0.0127500	-0.2238328	1.4831524	0.0702000	-0.3441848	1.7448120	0.1076000	0.3016963	1.6072826	-0.0127500	0.3335527	1.8242830	0.0702000	0.0766702	2.0571483	0.1076000
200	3.3166667	0.4203968	1.0357686	0.0301000	0.3355909	1.0000662	0.0301000	0.5061672	0.6114515	0.1290000	0.6784558	0.2588818	0.0230000	0.6500127	0.0745629	0.2179000	0.6186080	0.1065913	0.1804000	0.7501474	0.2430866	-0.0119000	0.5066227	1.0725584	0.0301000	0.6756515	0.6641112	0.1290000	0.8616540	0.2650615	0.0230000	0.8280221	0.1005976	0.2179000	0.8935944	0.1160535	0.1804000	0.8990869	0.2430264	-0.0119000	0.1522906	1.5692207	0.0008000	-0.0775176	1.7521334	0.0655000	-0.0302215	1.5967020	0.1076000	0.0403652	1.4678271	-0.0127500	-0.2228028	1.4786737	0.0702000	-0.3396704	1.7419181	0.1076000	0.3026999	1.6054899	-0.0127500	0.3352840	1.8152968	0.0702000	0.0741054	2.0446942	0.1076000
201	3.3333333	0.4236055	1.0304375	0.0301000	0.3382255	0.9950056	0.0301000	0.5077310	0.6065349	0.1290000	0.6794807	0.2544291	0.0230000	0.6506280	0.0712945	0.2179000	0.6193933	0.1034279	0.1804000	0.7511150	0.2390506	-0.0119000	0.5100169	1.0674882	0.0301000	0.6780269	0.6582838	0.1290000	0.8635675	0.2586792	0.0230000	0.8282760	0.0954516	0.2179000	0.8942347	0.1112060	0.1804000	0.9004221	0.2375072	-0.0119000	0.1551227	1.5633640	0.0008000	-0.0767882	1.7443464	0.0655000	-0.0280332	1.5891907	0.1076000	0.0437625	1.4619909	-0.0127500	-0.2198835	1.4682710	0.0702000	-0.3332526	1.7328580	0.1076000	0.3058469	1.5987666	-0.0127500	0.3405087	1.7990003	0.0702000	0.0747442	2.0246828	0.1076000
202	3.3500000	0.4289110	1.0206705	0.0301000	0.3426961	0.9855664	0.0301000	0.5104834	0.5974449	0.1290000	0.6822415	0.2466422	0.0230000	0.6528347	0.0657138	0.2179000	0.6217302	0.0978220	0.1804000	0.7534529	0.2315558	-0.0119000	0.5155683	1.0581492	0.0301000	0.6811473	0.6484884	0.1290000	0.8666242	0.2491872	0.0230000	0.8294073	0.0870905	0.2179000	0.8956088	0.1032115	0.1804000	0.9030580	0.2290030	-0.0119000	0.1597009	1.5529042	0.0008000	-0.0743735	1.7316582	0.0655000	-0.0240009	1.5768898	0.1076000	0.0489569	1.4517884	-0.0127500	-0.2150831	1.4522445	0.0702000	-0.3251269	1.7177559	0.1076000	0.3109819	1.5873024	-0.0127500	0.3491029	1.7756203	0.0702000	0.0785916	1.9974082	0.1076000
203	3.3666667	0.4361343	1.0068637	0.0301000	0.3488985	0.9721065	0.0301000	0.5143027	0.5846284	0.1290000	0.6866513	0.2359902	0.0230000	0.6565591	0.0582645	0.2179000	0.6255123	0.0902436	0.1804000	0.7570620	0.2210523	-0.0119000	0.5230625	1.0449044	0.0301000	0.6848015	0.6352575	0.1290000	0.8706658	0.2371955	0.0230000	0.8312820	0.0761219	0.2179000	0.8975514	0.0926094	0.1804000	0.9068581	0.2180788	-0.0119000	0.1658110	1.5380963	0.0008000	-0.0704011	1.7144575	0.0655000	-0.0183046	1.5601345	0.1076000	0.0557861	1.4374787	-0.0127500	-0.2083516	1.4309321	0.0702000	-0.3154484	1.6967058	0.1076000	0.3178781	1.5714149	-0.0127500	0.3609302	1.7454756	0.0702000	0.0856511	1.9631660	0.1076000
204	3.3833333	0.4450413	0.9895591	0.0301000	0.3566863	0.9551151	0.0301000	0.5190100	0.5686716	0.1290000	0.6925312	0.2231358	0.0230000	0.6616257	0.0495448	0.2179000	0.6305542	0.0813348	0.1804000	0.7617821	0.2081995	-0.0119000	0.5322293	1.0282498	0.0301000	0.6887404	0.6192064	0.1290000	0.8754983	0.2234504	0.0230000	0.8337132	0.0633615	0.2179000	0.8998578	0.0801453	0.1804000	0.9116514	0.2054350	-0.0119000	0.1731582	1.5193406	0.0008000	-0.0650678	1.6933273	0.0655000	-0.0112043	1.5394193	0.1076000	0.0640400	1.4194251	-0.0127500	-0.1995972	1.4047292	0.0702000	-0.3043454	1.6697861	0.1076000	0.3262464	1.5515761	-0.0127500	0.3758280	1.7089911	0.0702000	0.0958983	1.9222611	0.1076000
205	3.4000000	0.4553544	0.9694293	0.0301000	0.3658652	0.9352091	0.0301000	0.5243707	0.5502817	0.1290000	0.6995979	0.2089097	0.0230000	0.6677418	0.0402493	0.2179000	0.6365821	0.0718360	0.1804000	0.7673883	0.1938417	-0.0119000	0.5427553	1.0088166	0.0301000	0.6927057	0.6010097	0.1290000	0.8808981	0.2087864	0.0230000	0.8365005	0.0497464	0.2179000	0.9023274	0.0667141	0.1804000	0.9172354	0.1918768	-0.0119000	0.1813834	1.4972079	0.0008000	-0.0586522	1.6690310	0.0655000	-0.0030258	1.5153981	0.1076000	0.0734724	1.3981151	-0.0127500	-0.1887064	1.3741084	0.0702000	-0.2919260	1.6370723	0.1076000	0.3357518	1.5284268	-0.0127500	0.3935878	1.6667155	0.0702000	0.1092600	1.8750019	0.1076000
206	3.4166667	0.4667493	0.9472761	0.0301000	0.3761871	0.9131455	0.0301000	0.5301080	0.5302710	0.1290000	0.7074688	0.1942551	0.0230000	0.6745058	0.0310574	0.2179000	0.6432419	0.0624761	0.1804000	0.7735794	0.1789598	-0.0119000	0.5542869	0.9873762	0.0301000	0.6964471	0.5814024	0.1290000	0.8866094	0.1940809	0.0230000	0.8394395	0.0362296	0.2179000	0.9047850	0.0532455	0.1804000	0.9233606	0.1782688	-0.0119000	0.1900837	1.4724502	0.0008000	-0.0515143	1.6424917	0.0655000	0.0058210	1.4888993	0.1076000	0.0837986	1.3741824	-0.0127500	-0.1755564	1.3396368	0.0702000	-0.2782752	1.5986781	0.1076000	0.3460403	1.5027776	-0.0127500	0.4139178	1.6193789	0.0702000	0.1255975	1.8217303	0.1076000
